# xmcd
#
# Track frame offsets:
#   150
#   13197
#   30860
#   44809
#   61457
#   73100
#   89243
#
# Disc length: 1353 seconds
#
# Revision: 0
# Processed by: cddbd v1.5.1PL2 Copyright (c) Steve Scherf et al.
# Submitted via: GXTranscoder 2.0.1939
#
DISCID=63054707
DTITLE=Raw Edge - Taking Command
DYEAR=1900
DGENRE=Classical
TTITLE0=Enemy of Desolation
TTITLE1=Arrows of Truth
TTITLE2=Modern Age
TTITLE3=Kiss of Reality
TTITLE4=I Scream so loud
TTITLE5=Taking Command
TTITLE6=Inner Demons (Bonustrack)
EXTD=
EXTT0=
EXTT1=
EXTT2=
EXTT3=
EXTT4=
EXTT5=
EXTT6=
PLAYORDER=
